<svg width="550" height="350" xmlns="http://www.w3.org/2000/svg"><line x1="25" y1="25" x2="25" y2="75" style="stroke:rgb(0, 0, 0); stroke-width:1"/><line x1="25" y1="25" x2="75" y2="25" style="stroke:rgb(0, 0, 0); stroke-width:1"/><circle cx="25" cy="25" r="3"/><line x1="25" y1="75" x2="25" y2="25" style="stroke:rgb(0, 0, 0); stroke-width:1"/><line x1="25" y1="75" x2="25" y2="125" style="stroke:rgb(0, 0, 0); stroke-width:1"/><line x1="25" y1="75" x2="75" y2="75" style="stroke:rgb(0, 0, 0); stroke-width:1"/><circle cx="25" cy="75" r="3"/><line x1="75" y1="25" x2="25" y2="25" style="stroke:rgb(0, 0, 0); stroke-width:1"/><line x1="75" y1="25" x2="75" y2="75" style="stroke:rgb(0, 0, 0); stroke-width:1"/><line x1="75" y1="25" x2="125" y2="25" style="stroke:rgb(0, 0, 0); stroke-width:1"/><circle cx="75" cy="25" r="3"/><line x1="25" y1="125" x2="25" y2="75" style="stroke:rgb(0, 0, 0); stroke-width:1"/><line x1="25" y1="125" x2="25" y2="175" style="stroke:rgb(0, 0, 0); stroke-width:1"/><line x1="25" y1="125" x2="75" y2="125" style="stroke:rgb(0, 0, 0); stroke-width:1"/><circle cx="25" cy="125" r="3"/><line x1="75" y1="75" x2="25" y2="75" style="stroke:rgb(0, 0, 0); stroke-width:1"/><line x1="75" y1="75" x2="75" y2="25" style="stroke:rgb(0, 0, 0); stroke-width:1"/><line x1="75" y1="75" x2="75" y2="125" style="stroke:rgb(0, 0, 0); stroke-width:1"/><line x1="75" y1="75" x2="125" y2="75" style="stroke:rgb(0, 255, 0); stroke-width:2"/><circle cx="75" cy="75" r="5" style="stroke: rgb(255, 0, 0); fill: rgb(255, 0, 0)"/><line x1="125" y1="25" x2="75" y2="25" style="stroke:rgb(0, 0, 0); stroke-width:1"/><line x1="125" y1="25" x2="125" y2="75" style="stroke:rgb(0, 0, 0); stroke-width:1"/><line x1="125" y1="25" x2="175" y2="25" style="stroke:rgb(0, 0, 0); stroke-width:1"/><circle cx="125" cy="25" r="3"/><line x1="25" y1="175" x2="25" y2="125" style="stroke:rgb(0, 0, 0); stroke-width:1"/><line x1="25" y1="175" x2="25" y2="225" style="stroke:rgb(0, 0, 0); stroke-width:1"/><line x1="25" y1="175" x2="75" y2="175" style="stroke:rgb(0, 0, 0); stroke-width:1"/><circle cx="25" cy="175" r="3"/><line x1="75" y1="125" x2="25" y2="125" style="stroke:rgb(0, 0, 0); stroke-width:1"/><line x1="75" y1="125" x2="75" y2="75" style="stroke:rgb(0, 0, 0); stroke-width:1"/><line x1="75" y1="125" x2="75" y2="175" style="stroke:rgb(0, 0, 0); stroke-width:1"/><line x1="75" y1="125" x2="125" y2="125" style="stroke:rgb(0, 0, 0); stroke-width:1"/><circle cx="75" cy="125" r="3"/><line x1="125" y1="75" x2="75" y2="75" style="stroke:rgb(0, 255, 0); stroke-width:2"/><line x1="125" y1="75" x2="125" y2="25" style="stroke:rgb(0, 0, 0); stroke-width:1"/><line x1="125" y1="75" x2="125" y2="125" style="stroke:rgb(0, 0, 0); stroke-width:1"/><line x1="125" y1="75" x2="175" y2="75" style="stroke:rgb(0, 255, 0); stroke-width:2"/><circle cx="125" cy="75" r="3"/><line x1="175" y1="25" x2="125" y2="25" style="stroke:rgb(0, 0, 0); stroke-width:1"/><line x1="175" y1="25" x2="175" y2="75" style="stroke:rgb(0, 0, 0); stroke-width:1"/><line x1="175" y1="25" x2="225" y2="25" style="stroke:rgb(0, 0, 0); stroke-width:1"/><circle cx="175" cy="25" r="3"/><line x1="25" y1="225" x2="25" y2="175" style="stroke:rgb(0, 0, 0); stroke-width:1"/><line x1="25" y1="225" x2="25" y2="275" style="stroke:rgb(0, 0, 0); stroke-width:1"/><line x1="25" y1="225" x2="75" y2="225" style="stroke:rgb(0, 0, 0); stroke-width:1"/><circle cx="25" cy="225" r="3"/><line x1="75" y1="175" x2="25" y2="175" style="stroke:rgb(0, 0, 0); stroke-width:1"/><line x1="75" y1="175" x2="75" y2="125" style="stroke:rgb(0, 0, 0); stroke-width:1"/><line x1="75" y1="175" x2="75" y2="225" style="stroke:rgb(0, 0, 0); stroke-width:1"/><line x1="75" y1="175" x2="125" y2="175" style="stroke:rgb(0, 0, 0); stroke-width:1"/><circle cx="75" cy="175" r="3"/><line x1="125" y1="125" x2="75" y2="125" style="stroke:rgb(0, 0, 0); stroke-width:1"/><line x1="125" y1="125" x2="125" y2="75" style="stroke:rgb(0, 0, 0); stroke-width:1"/><line x1="125" y1="125" x2="125" y2="175" style="stroke:rgb(0, 0, 0); stroke-width:1"/><line x1="125" y1="125" x2="175" y2="125" style="stroke:rgb(0, 0, 0); stroke-width:1"/><circle cx="125" cy="125" r="3"/><line x1="175" y1="75" x2="125" y2="75" style="stroke:rgb(0, 255, 0); stroke-width:2"/><line x1="175" y1="75" x2="175" y2="25" style="stroke:rgb(0, 0, 0); stroke-width:1"/><line x1="175" y1="75" x2="175" y2="125" style="stroke:rgb(0, 0, 0); stroke-width:1"/><line x1="175" y1="75" x2="225" y2="75" style="stroke:rgb(0, 255, 0); stroke-width:2"/><circle cx="175" cy="75" r="3"/><line x1="225" y1="25" x2="175" y2="25" style="stroke:rgb(0, 0, 0); stroke-width:1"/><line x1="225" y1="25" x2="225" y2="75" style="stroke:rgb(0, 0, 0); stroke-width:1"/><line x1="225" y1="25" x2="275" y2="25" style="stroke:rgb(0, 0, 0); stroke-width:1"/><circle cx="225" cy="25" r="3"/><line x1="25" y1="275" x2="25" y2="225" style="stroke:rgb(0, 0, 0); stroke-width:1"/><line x1="25" y1="275" x2="75" y2="275" style="stroke:rgb(0, 0, 0); stroke-width:1"/><circle cx="25" cy="275" r="3"/><line x1="75" y1="225" x2="25" y2="225" style="stroke:rgb(0, 0, 0); stroke-width:1"/><line x1="75" y1="225" x2="75" y2="175" style="stroke:rgb(0, 0, 0); stroke-width:1"/><line x1="75" y1="225" x2="75" y2="275" style="stroke:rgb(0, 0, 0); stroke-width:1"/><line x1="75" y1="225" x2="125" y2="225" style="stroke:rgb(0, 0, 0); stroke-width:1"/><circle cx="75" cy="225" r="3"/><line x1="125" y1="175" x2="75" y2="175" style="stroke:rgb(0, 0, 0); stroke-width:1"/><line x1="125" y1="175" x2="125" y2="125" style="stroke:rgb(0, 0, 0); stroke-width:1"/><line x1="125" y1="175" x2="125" y2="225" style="stroke:rgb(0, 0, 0); stroke-width:1"/><line x1="125" y1="175" x2="175" y2="175" style="stroke:rgb(0, 0, 0); stroke-width:1"/><circle cx="125" cy="175" r="3"/><line x1="175" y1="125" x2="125" y2="125" style="stroke:rgb(0, 0, 0); stroke-width:1"/><line x1="175" y1="125" x2="175" y2="75" style="stroke:rgb(0, 0, 0); stroke-width:1"/><line x1="175" y1="125" x2="175" y2="175" style="stroke:rgb(0, 0, 0); stroke-width:1"/><line x1="175" y1="125" x2="225" y2="125" style="stroke:rgb(0, 0, 0); stroke-width:1"/><circle cx="175" cy="125" r="3"/><line x1="225" y1="75" x2="175" y2="75" style="stroke:rgb(0, 255, 0); stroke-width:2"/><line x1="225" y1="75" x2="225" y2="25" style="stroke:rgb(0, 0, 0); stroke-width:1"/><line x1="225" y1="75" x2="225" y2="125" style="stroke:rgb(0, 255, 0); stroke-width:2"/><line x1="225" y1="75" x2="275" y2="75" style="stroke:rgb(0, 0, 0); stroke-width:1"/><circle cx="225" cy="75" r="3"/><line x1="275" y1="25" x2="225" y2="25" style="stroke:rgb(0, 0, 0); stroke-width:1"/><line x1="275" y1="25" x2="275" y2="75" style="stroke:rgb(0, 0, 0); stroke-width:1"/><line x1="275" y1="25" x2="325" y2="25" style="stroke:rgb(0, 0, 0); stroke-width:1"/><circle cx="275" cy="25" r="3"/><line x1="75" y1="275" x2="25" y2="275" style="stroke:rgb(0, 0, 0); stroke-width:1"/><line x1="75" y1="275" x2="75" y2="225" style="stroke:rgb(0, 0, 0); stroke-width:1"/><line x1="75" y1="275" x2="125" y2="275" style="stroke:rgb(0, 0, 0); stroke-width:1"/><circle cx="75" cy="275" r="3"/><line x1="125" y1="225" x2="75" y2="225" style="stroke:rgb(0, 0, 0); stroke-width:1"/><line x1="125" y1="225" x2="125" y2="175" style="stroke:rgb(0, 0, 0); stroke-width:1"/><line x1="125" y1="225" x2="125" y2="275" style="stroke:rgb(0, 0, 0); stroke-width:1"/><line x1="125" y1="225" x2="175" y2="225" style="stroke:rgb(0, 0, 0); stroke-width:1"/><circle cx="125" cy="225" r="3"/><line x1="175" y1="175" x2="125" y2="175" style="stroke:rgb(0, 0, 0); stroke-width:1"/><line x1="175" y1="175" x2="175" y2="125" style="stroke:rgb(0, 0, 0); stroke-width:1"/><line x1="175" y1="175" x2="175" y2="225" style="stroke:rgb(0, 0, 0); stroke-width:1"/><line x1="175" y1="175" x2="225" y2="175" style="stroke:rgb(0, 0, 0); stroke-width:1"/><circle cx="175" cy="175" r="3"/><line x1="225" y1="125" x2="175" y2="125" style="stroke:rgb(0, 0, 0); stroke-width:1"/><line x1="225" y1="125" x2="225" y2="75" style="stroke:rgb(0, 255, 0); stroke-width:2"/><line x1="225" y1="125" x2="225" y2="175" style="stroke:rgb(0, 0, 0); stroke-width:1"/><line x1="225" y1="125" x2="275" y2="125" style="stroke:rgb(0, 255, 0); stroke-width:2"/><circle cx="225" cy="125" r="3"/><line x1="275" y1="75" x2="225" y2="75" style="stroke:rgb(0, 0, 0); stroke-width:1"/><line x1="275" y1="75" x2="275" y2="25" style="stroke:rgb(0, 0, 0); stroke-width:1"/><line x1="275" y1="75" x2="275" y2="125" style="stroke:rgb(0, 0, 0); stroke-width:1"/><line x1="275" y1="75" x2="325" y2="75" style="stroke:rgb(0, 0, 0); stroke-width:1"/><circle cx="275" cy="75" r="3"/><line x1="325" y1="25" x2="275" y2="25" style="stroke:rgb(0, 0, 0); stroke-width:1"/><line x1="325" y1="25" x2="325" y2="75" style="stroke:rgb(0, 0, 0); stroke-width:1"/><line x1="325" y1="25" x2="375" y2="25" style="stroke:rgb(0, 0, 0); stroke-width:1"/><circle cx="325" cy="25" r="3"/><line x1="125" y1="275" x2="75" y2="275" style="stroke:rgb(0, 0, 0); stroke-width:1"/><line x1="125" y1="275" x2="125" y2="225" style="stroke:rgb(0, 0, 0); stroke-width:1"/><line x1="125" y1="275" x2="175" y2="275" style="stroke:rgb(0, 0, 0); stroke-width:1"/><circle cx="125" cy="275" r="3"/><line x1="175" y1="225" x2="125" y2="225" style="stroke:rgb(0, 0, 0); stroke-width:1"/><line x1="175" y1="225" x2="175" y2="175" style="stroke:rgb(0, 0, 0); stroke-width:1"/><line x1="175" y1="225" x2="175" y2="275" style="stroke:rgb(0, 0, 0); stroke-width:1"/><line x1="175" y1="225" x2="225" y2="225" style="stroke:rgb(0, 0, 0); stroke-width:1"/><circle cx="175" cy="225" r="3"/><line x1="225" y1="175" x2="175" y2="175" style="stroke:rgb(0, 0, 0); stroke-width:1"/><line x1="225" y1="175" x2="225" y2="125" style="stroke:rgb(0, 0, 0); stroke-width:1"/><line x1="225" y1="175" x2="225" y2="225" style="stroke:rgb(0, 0, 0); stroke-width:1"/><line x1="225" y1="175" x2="275" y2="175" style="stroke:rgb(0, 0, 0); stroke-width:1"/><circle cx="225" cy="175" r="3"/><line x1="275" y1="125" x2="225" y2="125" style="stroke:rgb(0, 255, 0); stroke-width:2"/><line x1="275" y1="125" x2="275" y2="75" style="stroke:rgb(0, 0, 0); stroke-width:1"/><line x1="275" y1="125" x2="275" y2="175" style="stroke:rgb(0, 0, 0); stroke-width:1"/><line x1="275" y1="125" x2="325" y2="125" style="stroke:rgb(0, 255, 0); stroke-width:2"/><circle cx="275" cy="125" r="3"/><line x1="325" y1="75" x2="275" y2="75" style="stroke:rgb(0, 0, 0); stroke-width:1"/><line x1="325" y1="75" x2="325" y2="25" style="stroke:rgb(0, 0, 0); stroke-width:1"/><line x1="325" y1="75" x2="325" y2="125" style="stroke:rgb(0, 0, 0); stroke-width:1"/><line x1="325" y1="75" x2="375" y2="75" style="stroke:rgb(0, 0, 0); stroke-width:1"/><circle cx="325" cy="75" r="3"/><line x1="375" y1="25" x2="325" y2="25" style="stroke:rgb(0, 0, 0); stroke-width:1"/><line x1="375" y1="25" x2="375" y2="75" style="stroke:rgb(0, 0, 0); stroke-width:1"/><line x1="375" y1="25" x2="425" y2="25" style="stroke:rgb(0, 0, 0); stroke-width:1"/><circle cx="375" cy="25" r="3"/><line x1="175" y1="275" x2="125" y2="275" style="stroke:rgb(0, 0, 0); stroke-width:1"/><line x1="175" y1="275" x2="175" y2="225" style="stroke:rgb(0, 0, 0); stroke-width:1"/><line x1="175" y1="275" x2="225" y2="275" style="stroke:rgb(0, 0, 0); stroke-width:1"/><circle cx="175" cy="275" r="3"/><line x1="225" y1="225" x2="175" y2="225" style="stroke:rgb(0, 0, 0); stroke-width:1"/><line x1="225" y1="225" x2="225" y2="175" style="stroke:rgb(0, 0, 0); stroke-width:1"/><line x1="225" y1="225" x2="225" y2="275" style="stroke:rgb(0, 0, 0); stroke-width:1"/><line x1="225" y1="225" x2="275" y2="225" style="stroke:rgb(0, 0, 0); stroke-width:1"/><circle cx="225" cy="225" r="3"/><line x1="275" y1="175" x2="225" y2="175" style="stroke:rgb(0, 0, 0); stroke-width:1"/><line x1="275" y1="175" x2="275" y2="125" style="stroke:rgb(0, 0, 0); stroke-width:1"/><line x1="275" y1="175" x2="275" y2="225" style="stroke:rgb(0, 0, 0); stroke-width:1"/><line x1="275" y1="175" x2="325" y2="175" style="stroke:rgb(0, 0, 0); stroke-width:1"/><circle cx="275" cy="175" r="3"/><line x1="325" y1="125" x2="275" y2="125" style="stroke:rgb(0, 255, 0); stroke-width:2"/><line x1="325" y1="125" x2="325" y2="75" style="stroke:rgb(0, 0, 0); stroke-width:1"/><line x1="325" y1="125" x2="325" y2="175" style="stroke:rgb(0, 0, 0); stroke-width:1"/><line x1="325" y1="125" x2="375" y2="125" style="stroke:rgb(0, 0, 0); stroke-width:1"/><circle cx="325" cy="125" r="5" style="stroke: rgb(0, 0, 255); fill: rgb(0, 0, 255)"/><line x1="375" y1="75" x2="325" y2="75" style="stroke:rgb(0, 0, 0); stroke-width:1"/><line x1="375" y1="75" x2="375" y2="25" style="stroke:rgb(0, 0, 0); stroke-width:1"/><line x1="375" y1="75" x2="375" y2="125" style="stroke:rgb(0, 0, 0); stroke-width:1"/><line x1="375" y1="75" x2="425" y2="75" style="stroke:rgb(0, 0, 0); stroke-width:1"/><circle cx="375" cy="75" r="3"/><line x1="425" y1="25" x2="375" y2="25" style="stroke:rgb(0, 0, 0); stroke-width:1"/><line x1="425" y1="25" x2="425" y2="75" style="stroke:rgb(0, 0, 0); stroke-width:1"/><line x1="425" y1="25" x2="475" y2="25" style="stroke:rgb(0, 0, 0); stroke-width:1"/><circle cx="425" cy="25" r="3"/><line x1="225" y1="275" x2="175" y2="275" style="stroke:rgb(0, 0, 0); stroke-width:1"/><line x1="225" y1="275" x2="225" y2="225" style="stroke:rgb(0, 0, 0); stroke-width:1"/><line x1="225" y1="275" x2="275" y2="275" style="stroke:rgb(0, 0, 0); stroke-width:1"/><circle cx="225" cy="275" r="3"/><line x1="275" y1="225" x2="225" y2="225" style="stroke:rgb(0, 0, 0); stroke-width:1"/><line x1="275" y1="225" x2="275" y2="175" style="stroke:rgb(0, 0, 0); stroke-width:1"/><line x1="275" y1="225" x2="275" y2="275" style="stroke:rgb(0, 0, 0); stroke-width:1"/><line x1="275" y1="225" x2="325" y2="225" style="stroke:rgb(0, 0, 0); stroke-width:1"/><circle cx="275" cy="225" r="3"/><line x1="325" y1="175" x2="275" y2="175" style="stroke:rgb(0, 0, 0); stroke-width:1"/><line x1="325" y1="175" x2="325" y2="125" style="stroke:rgb(0, 0, 0); stroke-width:1"/><line x1="325" y1="175" x2="325" y2="225" style="stroke:rgb(0, 0, 0); stroke-width:1"/><line x1="325" y1="175" x2="375" y2="175" style="stroke:rgb(0, 0, 0); stroke-width:1"/><circle cx="325" cy="175" r="3"/><line x1="375" y1="125" x2="325" y2="125" style="stroke:rgb(0, 0, 0); stroke-width:1"/><line x1="375" y1="125" x2="375" y2="75" style="stroke:rgb(0, 0, 0); stroke-width:1"/><line x1="375" y1="125" x2="375" y2="175" style="stroke:rgb(0, 0, 0); stroke-width:1"/><line x1="375" y1="125" x2="425" y2="125" style="stroke:rgb(0, 0, 0); stroke-width:1"/><circle cx="375" cy="125" r="3"/><line x1="425" y1="75" x2="375" y2="75" style="stroke:rgb(0, 0, 0); stroke-width:1"/><line x1="425" y1="75" x2="425" y2="25" style="stroke:rgb(0, 0, 0); stroke-width:1"/><line x1="425" y1="75" x2="425" y2="125" style="stroke:rgb(0, 0, 0); stroke-width:1"/><line x1="425" y1="75" x2="475" y2="75" style="stroke:rgb(0, 0, 0); stroke-width:1"/><circle cx="425" cy="75" r="3"/><line x1="475" y1="25" x2="425" y2="25" style="stroke:rgb(0, 0, 0); stroke-width:1"/><line x1="475" y1="25" x2="475" y2="75" style="stroke:rgb(0, 0, 0); stroke-width:1"/><circle cx="475" cy="25" r="3"/><line x1="275" y1="275" x2="225" y2="275" style="stroke:rgb(0, 0, 0); stroke-width:1"/><line x1="275" y1="275" x2="275" y2="225" style="stroke:rgb(0, 0, 0); stroke-width:1"/><line x1="275" y1="275" x2="325" y2="275" style="stroke:rgb(0, 0, 0); stroke-width:1"/><circle cx="275" cy="275" r="3"/><line x1="325" y1="225" x2="275" y2="225" style="stroke:rgb(0, 0, 0); stroke-width:1"/><line x1="325" y1="225" x2="325" y2="175" style="stroke:rgb(0, 0, 0); stroke-width:1"/><line x1="325" y1="225" x2="325" y2="275" style="stroke:rgb(0, 0, 0); stroke-width:1"/><line x1="325" y1="225" x2="375" y2="225" style="stroke:rgb(0, 0, 0); stroke-width:1"/><circle cx="325" cy="225" r="3"/><line x1="375" y1="175" x2="325" y2="175" style="stroke:rgb(0, 0, 0); stroke-width:1"/><line x1="375" y1="175" x2="375" y2="125" style="stroke:rgb(0, 0, 0); stroke-width:1"/><line x1="375" y1="175" x2="375" y2="225" style="stroke:rgb(0, 0, 0); stroke-width:1"/><line x1="375" y1="175" x2="425" y2="175" style="stroke:rgb(0, 0, 0); stroke-width:1"/><circle cx="375" cy="175" r="3"/><line x1="425" y1="125" x2="375" y2="125" style="stroke:rgb(0, 0, 0); stroke-width:1"/><line x1="425" y1="125" x2="425" y2="75" style="stroke:rgb(0, 0, 0); stroke-width:1"/><line x1="425" y1="125" x2="425" y2="175" style="stroke:rgb(0, 0, 0); stroke-width:1"/><line x1="425" y1="125" x2="475" y2="125" style="stroke:rgb(0, 0, 0); stroke-width:1"/><circle cx="425" cy="125" r="3"/><line x1="475" y1="75" x2="425" y2="75" style="stroke:rgb(0, 0, 0); stroke-width:1"/><line x1="475" y1="75" x2="475" y2="25" style="stroke:rgb(0, 0, 0); stroke-width:1"/><line x1="475" y1="75" x2="475" y2="125" style="stroke:rgb(0, 0, 0); stroke-width:1"/><circle cx="475" cy="75" r="3"/><line x1="325" y1="275" x2="275" y2="275" style="stroke:rgb(0, 0, 0); stroke-width:1"/><line x1="325" y1="275" x2="325" y2="225" style="stroke:rgb(0, 0, 0); stroke-width:1"/><line x1="325" y1="275" x2="375" y2="275" style="stroke:rgb(0, 0, 0); stroke-width:1"/><circle cx="325" cy="275" r="3"/><line x1="375" y1="225" x2="325" y2="225" style="stroke:rgb(0, 0, 0); stroke-width:1"/><line x1="375" y1="225" x2="375" y2="175" style="stroke:rgb(0, 0, 0); stroke-width:1"/><line x1="375" y1="225" x2="375" y2="275" style="stroke:rgb(0, 0, 0); stroke-width:1"/><line x1="375" y1="225" x2="425" y2="225" style="stroke:rgb(0, 0, 0); stroke-width:1"/><circle cx="375" cy="225" r="3"/><line x1="425" y1="175" x2="375" y2="175" style="stroke:rgb(0, 0, 0); stroke-width:1"/><line x1="425" y1="175" x2="425" y2="125" style="stroke:rgb(0, 0, 0); stroke-width:1"/><line x1="425" y1="175" x2="425" y2="225" style="stroke:rgb(0, 0, 0); stroke-width:1"/><line x1="425" y1="175" x2="475" y2="175" style="stroke:rgb(0, 0, 0); stroke-width:1"/><circle cx="425" cy="175" r="3"/><line x1="475" y1="125" x2="425" y2="125" style="stroke:rgb(0, 0, 0); stroke-width:1"/><line x1="475" y1="125" x2="475" y2="75" style="stroke:rgb(0, 0, 0); stroke-width:1"/><line x1="475" y1="125" x2="475" y2="175" style="stroke:rgb(0, 0, 0); stroke-width:1"/><circle cx="475" cy="125" r="3"/><line x1="375" y1="275" x2="325" y2="275" style="stroke:rgb(0, 0, 0); stroke-width:1"/><line x1="375" y1="275" x2="375" y2="225" style="stroke:rgb(0, 0, 0); stroke-width:1"/><line x1="375" y1="275" x2="425" y2="275" style="stroke:rgb(0, 0, 0); stroke-width:1"/><circle cx="375" cy="275" r="3"/><line x1="425" y1="225" x2="375" y2="225" style="stroke:rgb(0, 0, 0); stroke-width:1"/><line x1="425" y1="225" x2="425" y2="175" style="stroke:rgb(0, 0, 0); stroke-width:1"/><line x1="425" y1="225" x2="425" y2="275" style="stroke:rgb(0, 0, 0); stroke-width:1"/><line x1="425" y1="225" x2="475" y2="225" style="stroke:rgb(0, 0, 0); stroke-width:1"/><circle cx="425" cy="225" r="3"/><line x1="475" y1="175" x2="425" y2="175" style="stroke:rgb(0, 0, 0); stroke-width:1"/><line x1="475" y1="175" x2="475" y2="125" style="stroke:rgb(0, 0, 0); stroke-width:1"/><line x1="475" y1="175" x2="475" y2="225" style="stroke:rgb(0, 0, 0); stroke-width:1"/><circle cx="475" cy="175" r="3"/><line x1="425" y1="275" x2="375" y2="275" style="stroke:rgb(0, 0, 0); stroke-width:1"/><line x1="425" y1="275" x2="425" y2="225" style="stroke:rgb(0, 0, 0); stroke-width:1"/><line x1="425" y1="275" x2="475" y2="275" style="stroke:rgb(0, 0, 0); stroke-width:1"/><circle cx="425" cy="275" r="3"/><line x1="475" y1="225" x2="425" y2="225" style="stroke:rgb(0, 0, 0); stroke-width:1"/><line x1="475" y1="225" x2="475" y2="175" style="stroke:rgb(0, 0, 0); stroke-width:1"/><line x1="475" y1="225" x2="475" y2="275" style="stroke:rgb(0, 0, 0); stroke-width:1"/><circle cx="475" cy="225" r="3"/><line x1="475" y1="275" x2="425" y2="275" style="stroke:rgb(0, 0, 0); stroke-width:1"/><line x1="475" y1="275" x2="475" y2="225" style="stroke:rgb(0, 0, 0); stroke-width:1"/><circle cx="475" cy="275" r="3"/></svg>