<svg width="1100" height="700" xmlns="http://www.w3.org/2000/svg"><line x1="50" y1="50" x2="50" y2="150" style="stroke:rgb(0, 0, 0); stroke-width:1"/><line x1="50" y1="50" x2="150" y2="50" style="stroke:rgb(0, 0, 0); stroke-width:1"/><circle cx="50" cy="50" r="5"/><line x1="50" y1="150" x2="50" y2="50" style="stroke:rgb(0, 0, 0); stroke-width:1"/><line x1="50" y1="150" x2="50" y2="250" style="stroke:rgb(0, 0, 0); stroke-width:1"/><line x1="50" y1="150" x2="150" y2="150" style="stroke:rgb(0, 0, 0); stroke-width:1"/><circle cx="50" cy="150" r="5"/><line x1="150" y1="50" x2="50" y2="50" style="stroke:rgb(0, 0, 0); stroke-width:1"/><line x1="150" y1="50" x2="150" y2="150" style="stroke:rgb(0, 0, 0); stroke-width:1"/><line x1="150" y1="50" x2="250" y2="50" style="stroke:rgb(0, 0, 0); stroke-width:1"/><circle cx="150" cy="50" r="5"/><line x1="50" y1="250" x2="50" y2="150" style="stroke:rgb(0, 0, 0); stroke-width:1"/><line x1="50" y1="250" x2="50" y2="350" style="stroke:rgb(0, 0, 0); stroke-width:1"/><line x1="50" y1="250" x2="150" y2="250" style="stroke:rgb(0, 0, 0); stroke-width:1"/><circle cx="50" cy="250" r="5"/><line x1="150" y1="150" x2="50" y2="150" style="stroke:rgb(0, 0, 0); stroke-width:1"/><line x1="150" y1="150" x2="150" y2="50" style="stroke:rgb(0, 0, 0); stroke-width:1"/><line x1="150" y1="150" x2="150" y2="250" style="stroke:rgb(0, 0, 0); stroke-width:1"/><line x1="150" y1="150" x2="250" y2="150" style="stroke:rgb(0, 255, 0); stroke-width:2"/><circle cx="150" cy="150" r="10" style="stroke: rgb(255, 0, 0); fill: rgb(255, 0, 0)"/><line x1="250" y1="50" x2="150" y2="50" style="stroke:rgb(0, 0, 0); stroke-width:1"/><line x1="250" y1="50" x2="250" y2="150" style="stroke:rgb(0, 0, 0); stroke-width:1"/><line x1="250" y1="50" x2="350" y2="50" style="stroke:rgb(0, 0, 0); stroke-width:1"/><circle cx="250" cy="50" r="5"/><line x1="50" y1="350" x2="50" y2="250" style="stroke:rgb(0, 0, 0); stroke-width:1"/><line x1="50" y1="350" x2="50" y2="450" style="stroke:rgb(0, 0, 0); stroke-width:1"/><line x1="50" y1="350" x2="150" y2="350" style="stroke:rgb(0, 0, 0); stroke-width:1"/><circle cx="50" cy="350" r="5"/><line x1="150" y1="250" x2="50" y2="250" style="stroke:rgb(0, 0, 0); stroke-width:1"/><line x1="150" y1="250" x2="150" y2="150" style="stroke:rgb(0, 0, 0); stroke-width:1"/><line x1="150" y1="250" x2="150" y2="350" style="stroke:rgb(0, 0, 0); stroke-width:1"/><line x1="150" y1="250" x2="250" y2="250" style="stroke:rgb(0, 0, 0); stroke-width:1"/><circle cx="150" cy="250" r="5"/><line x1="250" y1="150" x2="150" y2="150" style="stroke:rgb(0, 255, 0); stroke-width:2"/><line x1="250" y1="150" x2="250" y2="50" style="stroke:rgb(0, 0, 0); stroke-width:1"/><line x1="250" y1="150" x2="250" y2="250" style="stroke:rgb(0, 0, 0); stroke-width:1"/><line x1="250" y1="150" x2="350" y2="150" style="stroke:rgb(0, 255, 0); stroke-width:2"/><circle cx="250" cy="150" r="5"/><line x1="350" y1="50" x2="250" y2="50" style="stroke:rgb(0, 0, 0); stroke-width:1"/><line x1="350" y1="50" x2="350" y2="150" style="stroke:rgb(0, 0, 0); stroke-width:1"/><line x1="350" y1="50" x2="450" y2="50" style="stroke:rgb(0, 0, 0); stroke-width:1"/><circle cx="350" cy="50" r="5"/><line x1="50" y1="450" x2="50" y2="350" style="stroke:rgb(0, 0, 0); stroke-width:1"/><line x1="50" y1="450" x2="50" y2="550" style="stroke:rgb(0, 0, 0); stroke-width:1"/><line x1="50" y1="450" x2="150" y2="450" style="stroke:rgb(0, 0, 0); stroke-width:1"/><circle cx="50" cy="450" r="5"/><line x1="150" y1="350" x2="50" y2="350" style="stroke:rgb(0, 0, 0); stroke-width:1"/><line x1="150" y1="350" x2="150" y2="250" style="stroke:rgb(0, 0, 0); stroke-width:1"/><line x1="150" y1="350" x2="150" y2="450" style="stroke:rgb(0, 0, 0); stroke-width:1"/><line x1="150" y1="350" x2="250" y2="350" style="stroke:rgb(0, 0, 0); stroke-width:1"/><circle cx="150" cy="350" r="5"/><line x1="250" y1="250" x2="150" y2="250" style="stroke:rgb(0, 0, 0); stroke-width:1"/><line x1="250" y1="250" x2="250" y2="150" style="stroke:rgb(0, 0, 0); stroke-width:1"/><line x1="250" y1="250" x2="250" y2="350" style="stroke:rgb(0, 0, 0); stroke-width:1"/><line x1="250" y1="250" x2="350" y2="250" style="stroke:rgb(0, 0, 0); stroke-width:1"/><circle cx="250" cy="250" r="5"/><line x1="350" y1="150" x2="250" y2="150" style="stroke:rgb(0, 255, 0); stroke-width:2"/><line x1="350" y1="150" x2="350" y2="50" style="stroke:rgb(0, 0, 0); stroke-width:1"/><line x1="350" y1="150" x2="350" y2="250" style="stroke:rgb(0, 0, 0); stroke-width:1"/><line x1="350" y1="150" x2="450" y2="150" style="stroke:rgb(0, 255, 0); stroke-width:2"/><circle cx="350" cy="150" r="5"/><line x1="450" y1="50" x2="350" y2="50" style="stroke:rgb(0, 0, 0); stroke-width:1"/><line x1="450" y1="50" x2="450" y2="150" style="stroke:rgb(0, 0, 0); stroke-width:1"/><line x1="450" y1="50" x2="550" y2="50" style="stroke:rgb(0, 0, 0); stroke-width:1"/><circle cx="450" cy="50" r="5"/><line x1="50" y1="550" x2="50" y2="450" style="stroke:rgb(0, 0, 0); stroke-width:1"/><line x1="50" y1="550" x2="150" y2="550" style="stroke:rgb(0, 0, 0); stroke-width:1"/><circle cx="50" cy="550" r="5"/><line x1="150" y1="450" x2="50" y2="450" style="stroke:rgb(0, 0, 0); stroke-width:1"/><line x1="150" y1="450" x2="150" y2="350" style="stroke:rgb(0, 0, 0); stroke-width:1"/><line x1="150" y1="450" x2="150" y2="550" style="stroke:rgb(0, 0, 0); stroke-width:1"/><line x1="150" y1="450" x2="250" y2="450" style="stroke:rgb(0, 0, 0); stroke-width:1"/><circle cx="150" cy="450" r="5"/><line x1="250" y1="350" x2="150" y2="350" style="stroke:rgb(0, 0, 0); stroke-width:1"/><line x1="250" y1="350" x2="250" y2="250" style="stroke:rgb(0, 0, 0); stroke-width:1"/><line x1="250" y1="350" x2="250" y2="450" style="stroke:rgb(0, 0, 0); stroke-width:1"/><line x1="250" y1="350" x2="350" y2="350" style="stroke:rgb(0, 0, 0); stroke-width:1"/><circle cx="250" cy="350" r="5"/><line x1="350" y1="250" x2="250" y2="250" style="stroke:rgb(0, 0, 0); stroke-width:1"/><line x1="350" y1="250" x2="350" y2="150" style="stroke:rgb(0, 0, 0); stroke-width:1"/><line x1="350" y1="250" x2="350" y2="350" style="stroke:rgb(0, 0, 0); stroke-width:1"/><line x1="350" y1="250" x2="450" y2="250" style="stroke:rgb(0, 0, 0); stroke-width:1"/><circle cx="350" cy="250" r="5"/><line x1="450" y1="150" x2="350" y2="150" style="stroke:rgb(0, 255, 0); stroke-width:2"/><line x1="450" y1="150" x2="450" y2="50" style="stroke:rgb(0, 0, 0); stroke-width:1"/><line x1="450" y1="150" x2="450" y2="250" style="stroke:rgb(0, 255, 0); stroke-width:2"/><line x1="450" y1="150" x2="550" y2="150" style="stroke:rgb(0, 0, 0); stroke-width:1"/><circle cx="450" cy="150" r="5"/><line x1="550" y1="50" x2="450" y2="50" style="stroke:rgb(0, 0, 0); stroke-width:1"/><line x1="550" y1="50" x2="550" y2="150" style="stroke:rgb(0, 0, 0); stroke-width:1"/><line x1="550" y1="50" x2="650" y2="50" style="stroke:rgb(0, 0, 0); stroke-width:1"/><circle cx="550" cy="50" r="5"/><line x1="150" y1="550" x2="50" y2="550" style="stroke:rgb(0, 0, 0); stroke-width:1"/><line x1="150" y1="550" x2="150" y2="450" style="stroke:rgb(0, 0, 0); stroke-width:1"/><line x1="150" y1="550" x2="250" y2="550" style="stroke:rgb(0, 0, 0); stroke-width:1"/><circle cx="150" cy="550" r="5"/><line x1="250" y1="450" x2="150" y2="450" style="stroke:rgb(0, 0, 0); stroke-width:1"/><line x1="250" y1="450" x2="250" y2="350" style="stroke:rgb(0, 0, 0); stroke-width:1"/><line x1="250" y1="450" x2="250" y2="550" style="stroke:rgb(0, 0, 0); stroke-width:1"/><line x1="250" y1="450" x2="350" y2="450" style="stroke:rgb(0, 0, 0); stroke-width:1"/><circle cx="250" cy="450" r="5"/><line x1="350" y1="350" x2="250" y2="350" style="stroke:rgb(0, 0, 0); stroke-width:1"/><line x1="350" y1="350" x2="350" y2="250" style="stroke:rgb(0, 0, 0); stroke-width:1"/><line x1="350" y1="350" x2="350" y2="450" style="stroke:rgb(0, 0, 0); stroke-width:1"/><line x1="350" y1="350" x2="450" y2="350" style="stroke:rgb(0, 0, 0); stroke-width:1"/><circle cx="350" cy="350" r="5"/><line x1="450" y1="250" x2="350" y2="250" style="stroke:rgb(0, 0, 0); stroke-width:1"/><line x1="450" y1="250" x2="450" y2="150" style="stroke:rgb(0, 255, 0); stroke-width:2"/><line x1="450" y1="250" x2="450" y2="350" style="stroke:rgb(0, 0, 0); stroke-width:1"/><line x1="450" y1="250" x2="550" y2="250" style="stroke:rgb(0, 255, 0); stroke-width:2"/><circle cx="450" cy="250" r="5"/><line x1="550" y1="150" x2="450" y2="150" style="stroke:rgb(0, 0, 0); stroke-width:1"/><line x1="550" y1="150" x2="550" y2="50" style="stroke:rgb(0, 0, 0); stroke-width:1"/><line x1="550" y1="150" x2="550" y2="250" style="stroke:rgb(0, 0, 0); stroke-width:1"/><line x1="550" y1="150" x2="650" y2="150" style="stroke:rgb(0, 0, 0); stroke-width:1"/><circle cx="550" cy="150" r="5"/><line x1="650" y1="50" x2="550" y2="50" style="stroke:rgb(0, 0, 0); stroke-width:1"/><line x1="650" y1="50" x2="650" y2="150" style="stroke:rgb(0, 0, 0); stroke-width:1"/><line x1="650" y1="50" x2="750" y2="50" style="stroke:rgb(0, 0, 0); stroke-width:1"/><circle cx="650" cy="50" r="5"/><line x1="250" y1="550" x2="150" y2="550" style="stroke:rgb(0, 0, 0); stroke-width:1"/><line x1="250" y1="550" x2="250" y2="450" style="stroke:rgb(0, 0, 0); stroke-width:1"/><line x1="250" y1="550" x2="350" y2="550" style="stroke:rgb(0, 0, 0); stroke-width:1"/><circle cx="250" cy="550" r="5"/><line x1="350" y1="450" x2="250" y2="450" style="stroke:rgb(0, 0, 0); stroke-width:1"/><line x1="350" y1="450" x2="350" y2="350" style="stroke:rgb(0, 0, 0); stroke-width:1"/><line x1="350" y1="450" x2="350" y2="550" style="stroke:rgb(0, 0, 0); stroke-width:1"/><line x1="350" y1="450" x2="450" y2="450" style="stroke:rgb(0, 0, 0); stroke-width:1"/><circle cx="350" cy="450" r="5"/><line x1="450" y1="350" x2="350" y2="350" style="stroke:rgb(0, 0, 0); stroke-width:1"/><line x1="450" y1="350" x2="450" y2="250" style="stroke:rgb(0, 0, 0); stroke-width:1"/><line x1="450" y1="350" x2="450" y2="450" style="stroke:rgb(0, 0, 0); stroke-width:1"/><line x1="450" y1="350" x2="550" y2="350" style="stroke:rgb(0, 0, 0); stroke-width:1"/><circle cx="450" cy="350" r="5"/><line x1="550" y1="250" x2="450" y2="250" style="stroke:rgb(0, 255, 0); stroke-width:2"/><line x1="550" y1="250" x2="550" y2="150" style="stroke:rgb(0, 0, 0); stroke-width:1"/><line x1="550" y1="250" x2="550" y2="350" style="stroke:rgb(0, 0, 0); stroke-width:1"/><line x1="550" y1="250" x2="650" y2="250" style="stroke:rgb(0, 255, 0); stroke-width:2"/><circle cx="550" cy="250" r="5"/><line x1="650" y1="150" x2="550" y2="150" style="stroke:rgb(0, 0, 0); stroke-width:1"/><line x1="650" y1="150" x2="650" y2="50" style="stroke:rgb(0, 0, 0); stroke-width:1"/><line x1="650" y1="150" x2="650" y2="250" style="stroke:rgb(0, 0, 0); stroke-width:1"/><line x1="650" y1="150" x2="750" y2="150" style="stroke:rgb(0, 0, 0); stroke-width:1"/><circle cx="650" cy="150" r="5"/><line x1="750" y1="50" x2="650" y2="50" style="stroke:rgb(0, 0, 0); stroke-width:1"/><line x1="750" y1="50" x2="750" y2="150" style="stroke:rgb(0, 0, 0); stroke-width:1"/><line x1="750" y1="50" x2="850" y2="50" style="stroke:rgb(0, 0, 0); stroke-width:1"/><circle cx="750" cy="50" r="5"/><line x1="350" y1="550" x2="250" y2="550" style="stroke:rgb(0, 0, 0); stroke-width:1"/><line x1="350" y1="550" x2="350" y2="450" style="stroke:rgb(0, 0, 0); stroke-width:1"/><line x1="350" y1="550" x2="450" y2="550" style="stroke:rgb(0, 0, 0); stroke-width:1"/><circle cx="350" cy="550" r="5"/><line x1="450" y1="450" x2="350" y2="450" style="stroke:rgb(0, 0, 0); stroke-width:1"/><line x1="450" y1="450" x2="450" y2="350" style="stroke:rgb(0, 0, 0); stroke-width:1"/><line x1="450" y1="450" x2="450" y2="550" style="stroke:rgb(0, 0, 0); stroke-width:1"/><line x1="450" y1="450" x2="550" y2="450" style="stroke:rgb(0, 0, 0); stroke-width:1"/><circle cx="450" cy="450" r="5"/><line x1="550" y1="350" x2="450" y2="350" style="stroke:rgb(0, 0, 0); stroke-width:1"/><line x1="550" y1="350" x2="550" y2="250" style="stroke:rgb(0, 0, 0); stroke-width:1"/><line x1="550" y1="350" x2="550" y2="450" style="stroke:rgb(0, 0, 0); stroke-width:1"/><line x1="550" y1="350" x2="650" y2="350" style="stroke:rgb(0, 0, 0); stroke-width:1"/><circle cx="550" cy="350" r="5"/><line x1="650" y1="250" x2="550" y2="250" style="stroke:rgb(0, 255, 0); stroke-width:2"/><line x1="650" y1="250" x2="650" y2="150" style="stroke:rgb(0, 0, 0); stroke-width:1"/><line x1="650" y1="250" x2="650" y2="350" style="stroke:rgb(0, 0, 0); stroke-width:1"/><line x1="650" y1="250" x2="750" y2="250" style="stroke:rgb(0, 0, 0); stroke-width:1"/><circle cx="650" cy="250" r="10" style="stroke: rgb(0, 0, 255); fill: rgb(0, 0, 255)"/><line x1="750" y1="150" x2="650" y2="150" style="stroke:rgb(0, 0, 0); stroke-width:1"/><line x1="750" y1="150" x2="750" y2="50" style="stroke:rgb(0, 0, 0); stroke-width:1"/><line x1="750" y1="150" x2="750" y2="250" style="stroke:rgb(0, 0, 0); stroke-width:1"/><line x1="750" y1="150" x2="850" y2="150" style="stroke:rgb(0, 0, 0); stroke-width:1"/><circle cx="750" cy="150" r="5"/><line x1="850" y1="50" x2="750" y2="50" style="stroke:rgb(0, 0, 0); stroke-width:1"/><line x1="850" y1="50" x2="850" y2="150" style="stroke:rgb(0, 0, 0); stroke-width:1"/><line x1="850" y1="50" x2="950" y2="50" style="stroke:rgb(0, 0, 0); stroke-width:1"/><circle cx="850" cy="50" r="5"/><line x1="450" y1="550" x2="350" y2="550" style="stroke:rgb(0, 0, 0); stroke-width:1"/><line x1="450" y1="550" x2="450" y2="450" style="stroke:rgb(0, 0, 0); stroke-width:1"/><line x1="450" y1="550" x2="550" y2="550" style="stroke:rgb(0, 0, 0); stroke-width:1"/><circle cx="450" cy="550" r="5"/><line x1="550" y1="450" x2="450" y2="450" style="stroke:rgb(0, 0, 0); stroke-width:1"/><line x1="550" y1="450" x2="550" y2="350" style="stroke:rgb(0, 0, 0); stroke-width:1"/><line x1="550" y1="450" x2="550" y2="550" style="stroke:rgb(0, 0, 0); stroke-width:1"/><line x1="550" y1="450" x2="650" y2="450" style="stroke:rgb(0, 0, 0); stroke-width:1"/><circle cx="550" cy="450" r="5"/><line x1="650" y1="350" x2="550" y2="350" style="stroke:rgb(0, 0, 0); stroke-width:1"/><line x1="650" y1="350" x2="650" y2="250" style="stroke:rgb(0, 0, 0); stroke-width:1"/><line x1="650" y1="350" x2="650" y2="450" style="stroke:rgb(0, 0, 0); stroke-width:1"/><line x1="650" y1="350" x2="750" y2="350" style="stroke:rgb(0, 0, 0); stroke-width:1"/><circle cx="650" cy="350" r="5"/><line x1="750" y1="250" x2="650" y2="250" style="stroke:rgb(0, 0, 0); stroke-width:1"/><line x1="750" y1="250" x2="750" y2="150" style="stroke:rgb(0, 0, 0); stroke-width:1"/><line x1="750" y1="250" x2="750" y2="350" style="stroke:rgb(0, 0, 0); stroke-width:1"/><line x1="750" y1="250" x2="850" y2="250" style="stroke:rgb(0, 0, 0); stroke-width:1"/><circle cx="750" cy="250" r="5"/><line x1="850" y1="150" x2="750" y2="150" style="stroke:rgb(0, 0, 0); stroke-width:1"/><line x1="850" y1="150" x2="850" y2="50" style="stroke:rgb(0, 0, 0); stroke-width:1"/><line x1="850" y1="150" x2="850" y2="250" style="stroke:rgb(0, 0, 0); stroke-width:1"/><line x1="850" y1="150" x2="950" y2="150" style="stroke:rgb(0, 0, 0); stroke-width:1"/><circle cx="850" cy="150" r="5"/><line x1="950" y1="50" x2="850" y2="50" style="stroke:rgb(0, 0, 0); stroke-width:1"/><line x1="950" y1="50" x2="950" y2="150" style="stroke:rgb(0, 0, 0); stroke-width:1"/><circle cx="950" cy="50" r="5"/><line x1="550" y1="550" x2="450" y2="550" style="stroke:rgb(0, 0, 0); stroke-width:1"/><line x1="550" y1="550" x2="550" y2="450" style="stroke:rgb(0, 0, 0); stroke-width:1"/><line x1="550" y1="550" x2="650" y2="550" style="stroke:rgb(0, 0, 0); stroke-width:1"/><circle cx="550" cy="550" r="5"/><line x1="650" y1="450" x2="550" y2="450" style="stroke:rgb(0, 0, 0); stroke-width:1"/><line x1="650" y1="450" x2="650" y2="350" style="stroke:rgb(0, 0, 0); stroke-width:1"/><line x1="650" y1="450" x2="650" y2="550" style="stroke:rgb(0, 0, 0); stroke-width:1"/><line x1="650" y1="450" x2="750" y2="450" style="stroke:rgb(0, 0, 0); stroke-width:1"/><circle cx="650" cy="450" r="5"/><line x1="750" y1="350" x2="650" y2="350" style="stroke:rgb(0, 0, 0); stroke-width:1"/><line x1="750" y1="350" x2="750" y2="250" style="stroke:rgb(0, 0, 0); stroke-width:1"/><line x1="750" y1="350" x2="750" y2="450" style="stroke:rgb(0, 0, 0); stroke-width:1"/><line x1="750" y1="350" x2="850" y2="350" style="stroke:rgb(0, 0, 0); stroke-width:1"/><circle cx="750" cy="350" r="5"/><line x1="850" y1="250" x2="750" y2="250" style="stroke:rgb(0, 0, 0); stroke-width:1"/><line x1="850" y1="250" x2="850" y2="150" style="stroke:rgb(0, 0, 0); stroke-width:1"/><line x1="850" y1="250" x2="850" y2="350" style="stroke:rgb(0, 0, 0); stroke-width:1"/><line x1="850" y1="250" x2="950" y2="250" style="stroke:rgb(0, 0, 0); stroke-width:1"/><circle cx="850" cy="250" r="5"/><line x1="950" y1="150" x2="850" y2="150" style="stroke:rgb(0, 0, 0); stroke-width:1"/><line x1="950" y1="150" x2="950" y2="50" style="stroke:rgb(0, 0, 0); stroke-width:1"/><line x1="950" y1="150" x2="950" y2="250" style="stroke:rgb(0, 0, 0); stroke-width:1"/><circle cx="950" cy="150" r="5"/><line x1="650" y1="550" x2="550" y2="550" style="stroke:rgb(0, 0, 0); stroke-width:1"/><line x1="650" y1="550" x2="650" y2="450" style="stroke:rgb(0, 0, 0); stroke-width:1"/><line x1="650" y1="550" x2="750" y2="550" style="stroke:rgb(0, 0, 0); stroke-width:1"/><circle cx="650" cy="550" r="5"/><line x1="750" y1="450" x2="650" y2="450" style="stroke:rgb(0, 0, 0); stroke-width:1"/><line x1="750" y1="450" x2="750" y2="350" style="stroke:rgb(0, 0, 0); stroke-width:1"/><line x1="750" y1="450" x2="750" y2="550" style="stroke:rgb(0, 0, 0); stroke-width:1"/><line x1="750" y1="450" x2="850" y2="450" style="stroke:rgb(0, 0, 0); stroke-width:1"/><circle cx="750" cy="450" r="5"/><line x1="850" y1="350" x2="750" y2="350" style="stroke:rgb(0, 0, 0); stroke-width:1"/><line x1="850" y1="350" x2="850" y2="250" style="stroke:rgb(0, 0, 0); stroke-width:1"/><line x1="850" y1="350" x2="850" y2="450" style="stroke:rgb(0, 0, 0); stroke-width:1"/><line x1="850" y1="350" x2="950" y2="350" style="stroke:rgb(0, 0, 0); stroke-width:1"/><circle cx="850" cy="350" r="5"/><line x1="950" y1="250" x2="850" y2="250" style="stroke:rgb(0, 0, 0); stroke-width:1"/><line x1="950" y1="250" x2="950" y2="150" style="stroke:rgb(0, 0, 0); stroke-width:1"/><line x1="950" y1="250" x2="950" y2="350" style="stroke:rgb(0, 0, 0); stroke-width:1"/><circle cx="950" cy="250" r="5"/><line x1="750" y1="550" x2="650" y2="550" style="stroke:rgb(0, 0, 0); stroke-width:1"/><line x1="750" y1="550" x2="750" y2="450" style="stroke:rgb(0, 0, 0); stroke-width:1"/><line x1="750" y1="550" x2="850" y2="550" style="stroke:rgb(0, 0, 0); stroke-width:1"/><circle cx="750" cy="550" r="5"/><line x1="850" y1="450" x2="750" y2="450" style="stroke:rgb(0, 0, 0); stroke-width:1"/><line x1="850" y1="450" x2="850" y2="350" style="stroke:rgb(0, 0, 0); stroke-width:1"/><line x1="850" y1="450" x2="850" y2="550" style="stroke:rgb(0, 0, 0); stroke-width:1"/><line x1="850" y1="450" x2="950" y2="450" style="stroke:rgb(0, 0, 0); stroke-width:1"/><circle cx="850" cy="450" r="5"/><line x1="950" y1="350" x2="850" y2="350" style="stroke:rgb(0, 0, 0); stroke-width:1"/><line x1="950" y1="350" x2="950" y2="250" style="stroke:rgb(0, 0, 0); stroke-width:1"/><line x1="950" y1="350" x2="950" y2="450" style="stroke:rgb(0, 0, 0); stroke-width:1"/><circle cx="950" cy="350" r="5"/><line x1="850" y1="550" x2="750" y2="550" style="stroke:rgb(0, 0, 0); stroke-width:1"/><line x1="850" y1="550" x2="850" y2="450" style="stroke:rgb(0, 0, 0); stroke-width:1"/><line x1="850" y1="550" x2="950" y2="550" style="stroke:rgb(0, 0, 0); stroke-width:1"/><circle cx="850" cy="550" r="5"/><line x1="950" y1="450" x2="850" y2="450" style="stroke:rgb(0, 0, 0); stroke-width:1"/><line x1="950" y1="450" x2="950" y2="350" style="stroke:rgb(0, 0, 0); stroke-width:1"/><line x1="950" y1="450" x2="950" y2="550" style="stroke:rgb(0, 0, 0); stroke-width:1"/><circle cx="950" cy="450" r="5"/><line x1="950" y1="550" x2="850" y2="550" style="stroke:rgb(0, 0, 0); stroke-width:1"/><line x1="950" y1="550" x2="950" y2="450" style="stroke:rgb(0, 0, 0); stroke-width:1"/><circle cx="950" cy="550" r="5"/></svg>